<svg width="187" height="73" viewBox="0 0 187 73" fill="none" xmlns="http://www.w3.org/2000/svg">
<path d="M114.577 61.6086H183.648C185.029 61.6086 186.148 62.7279 186.148 64.1086C186.148 65.4893 185.029 66.6086 183.648 66.6086H114.577V61.6086Z" fill="#FCFCFC"/>
<path d="M72.4236 61.6086H3.62476C2.09344 61.6086 0.852051 62.85 0.852051 64.3813C0.852051 65.9126 2.09343 67.154 3.62476 67.154H72.4236V61.6086Z" fill="#FCFCFC"/>
<rect x="85.7412" y="67.154" width="15.5277" height="5.54559" fill="#FCFCFC"/>
<path d="M72.4236 61.6086L85.7414 67.1446V72.6902L72.4236 67.1446L72.4236 61.6086Z" fill="#FCFCFC"/>
<path d="M114.587 61.6086L101.269 67.1446V72.6902L114.587 67.1446L114.587 61.6086Z" fill="#FCFCFC"/>
<path d="M6.01709 46.643L8.34581 30.3151C30.761 32.7423 32.2167 18.5105 54.826 23.2544C72.9134 27.0495 87.2036 46.9739 92.0877 56.4617C91.6025 50.9088 94.436 35.5444 109.651 18.5105C124.866 1.47655 153.253 -0.796098 165.544 0.196819V7.03687C162.18 6.59557 150.794 7.12511 132.163 12.7737C113.533 18.4222 103.894 36.8977 101.403 45.4294C112.271 26.8951 130.75 22.2726 139.976 22.7085C157.514 23.5372 156.256 27.5414 178.838 30.5358L182.234 45.4294C174.665 43.3333 157.349 37.9274 134.686 37.9274C114.795 37.9274 101.888 52.1592 97.9098 59.8818H89.9529C83.3545 48.9598 52.7168 33.0222 41.2282 38.0006C27.5145 43.9432 12.939 46.4224 6.01709 46.643Z" fill="#FCFCFC"/>
<path d="M72.4271 53.165H22.4998C36.7756 51.8054 39.2418 43.9025 52.0227 44.3274C62.2473 44.6673 69.8859 50.3607 72.4271 53.165Z" fill="#FCFCFC"/>
<path d="M112.1 53.1648H181.227C157.588 49.9066 160.384 44.0304 137.423 45.1863C127.203 45.7008 114.641 50.3606 112.1 53.1648Z" fill="#FCFCFC"/>
</svg>
