<svg width="187" height="73" viewBox="0 0 187 73" fill="none" xmlns="http://www.w3.org/2000/svg">
<path d="M114.577 61.6084H183.648C185.029 61.6084 186.148 62.7277 186.148 64.1084C186.148 65.4891 185.029 66.6084 183.648 66.6084H114.577V61.6084Z" fill="#2E2E2E"/>
<path d="M72.4238 61.6084H3.625C2.09368 61.6084 0.852295 62.8498 0.852295 64.3811C0.852295 65.9124 2.09367 67.1538 3.625 67.1538H72.4238V61.6084Z" fill="#2E2E2E"/>
<rect x="85.7412" y="67.1543" width="15.5277" height="5.54559" fill="#2E2E2E"/>
<path d="M72.4233 61.6084L85.7411 67.1444V72.69L72.4234 67.1444L72.4233 61.6084Z" fill="#2E2E2E"/>
<path d="M114.587 61.6084L101.269 67.1444V72.69L114.587 67.1444L114.587 61.6084Z" fill="#2E2E2E"/>
<path d="M6.01709 46.643L8.34581 30.3151C30.761 32.7423 32.2167 18.5105 54.826 23.2544C72.9134 27.0495 87.2036 46.9739 92.0877 56.4617C91.6025 50.9088 94.436 35.5444 109.651 18.5105C124.866 1.47655 153.253 -0.796098 165.544 0.196819V7.03687C162.18 6.59557 150.794 7.12511 132.163 12.7737C113.533 18.4222 103.894 36.8977 101.403 45.4294C112.271 26.8951 130.75 22.2726 139.976 22.7085C157.514 23.5372 156.256 27.5414 178.838 30.5358L182.234 45.4294C174.665 43.3333 157.349 37.9274 134.686 37.9274C114.795 37.9274 101.888 52.1592 97.9098 59.8818H89.9529C83.3545 48.9598 52.7168 33.0222 41.2282 38.0006C27.5145 43.9432 12.939 46.4224 6.01709 46.643Z" fill="#2E2E2E"/>
<path d="M72.4269 53.1652H22.4995C36.7753 51.8056 39.2416 43.9027 52.0224 44.3275C62.2471 44.6675 69.8857 50.3609 72.4269 53.1652Z" fill="#2E2E2E"/>
<path d="M112.1 53.1649H181.227C157.588 49.9067 160.384 44.0305 137.423 45.1865C127.203 45.7009 114.641 50.3607 112.1 53.1649Z" fill="#2E2E2E"/>
</svg>
