<svg width="67" height="37" viewBox="0 0 67 37" fill="none" xmlns="http://www.w3.org/2000/svg">
<path d="M32.9581 22.537C33.3212 22.8227 33.8329 22.8224 34.1957 22.5362L59.3786 2.67189C60.1235 2.08433 59.708 0.886749 58.7593 0.886749H8.32935C7.38001 0.886749 6.96491 2.08563 7.711 2.67265L32.9581 22.537Z" fill="#D9D9D9"/>
<path d="M34.1746 26.6462C33.8615 26.8326 33.4718 26.8341 33.1574 26.6499L23.927 21.2426L7.56576 34.862C6.84671 35.4606 7.26996 36.6306 8.20553 36.6306H58.8876C59.822 36.6306 60.2459 35.463 59.5292 34.8635L43.2455 21.2426L34.1746 26.6462Z" fill="#D9D9D9"/>
<path d="M19.9065 19.4948C20.4247 19.0945 20.4247 18.3125 19.9065 17.9121L7.09309 8.01285C6.43577 7.50502 5.48172 7.97355 5.48172 8.80419L5.48172 28.6028C5.48172 29.4334 6.43577 29.902 7.09309 29.3941L19.9065 19.4948Z" fill="#D9D9D9"/>
<path d="M47.1069 19.4948C46.5888 19.0945 46.5888 18.3125 47.1069 17.9121L59.9203 8.01285C60.5777 7.50502 61.5317 7.97355 61.5317 8.80419L61.5317 28.6028C61.5317 29.4334 60.5777 29.902 59.9203 29.3941L47.1069 19.4948Z" fill="#D9D9D9"/>
</svg>
