<svg width="171" height="171" viewBox="0 0 171 171" fill="none" xmlns="http://www.w3.org/2000/svg">
<rect x="92.855" y="32.4551" width="5" height="64.9996" transform="rotate(-45 92.855 32.4551)" fill="#2E2E2E"/>
<path fill-rule="evenodd" clip-rule="evenodd" d="M110.548 35.9763L135.284 60.713L163.549 46.5755L124.685 7.71141L110.548 35.9763Z" fill="#2E2E2E"/>
<path fill-rule="evenodd" clip-rule="evenodd" d="M43.888 109.761C39.5722 120.873 33.4088 132.036 25.7024 142.074L75.2256 92.5512L78.7503 96.076L29.2271 145.599C39.2652 137.893 50.4281 131.729 61.5401 127.414C71.0308 123.728 80.4844 121.389 89.1686 120.589C94.25 120.121 99.068 120.179 103.476 120.801L103.504 120.83L103.517 120.807L103.526 120.809L103.52 120.802L128.236 74.8685L96.386 43.0187L50.5134 67.7959L50.493 67.7755L50.4972 67.8046L50.4854 67.811L50.5002 67.8258C51.1229 72.2336 51.181 77.0516 50.7126 82.133C49.9122 90.8171 47.574 100.271 43.888 109.761ZM101.785 80.1123C104.713 77.1842 104.715 72.4386 101.789 69.5128C98.863 66.5869 94.1175 66.5887 91.1894 69.5167C88.2614 72.4448 88.2596 77.1903 91.1855 80.1162C94.1114 83.0421 98.8569 83.0403 101.785 80.1123Z" fill="#2E2E2E"/>
</svg>
