<svg width="170" height="170" viewBox="0 0 170 170" fill="none" xmlns="http://www.w3.org/2000/svg">
<rect x="92.054" y="32.0289" width="5" height="64.9996" transform="rotate(-45 92.054 32.0289)" fill="#FCFCFC"/>
<path fill-rule="evenodd" clip-rule="evenodd" d="M109.746 35.55L134.483 60.2868L162.748 46.1493L123.884 7.28514L109.746 35.55Z" fill="#FCFCFC"/>
<path fill-rule="evenodd" clip-rule="evenodd" d="M43.087 109.335C38.7712 120.447 32.6077 131.61 24.9013 141.648L74.4246 92.1248L77.9493 95.6496L28.4261 145.173C38.4642 137.466 49.627 131.303 60.7391 126.987C70.2298 123.301 79.6834 120.963 88.3675 120.163C93.449 119.694 98.267 119.752 102.675 120.375L102.703 120.404L102.716 120.381L102.725 120.382L102.719 120.376L127.435 74.4421L95.585 42.5923L49.7124 67.3695L49.692 67.3491L49.6961 67.3782L49.6843 67.3846L49.6991 67.3994C50.3218 71.8072 50.38 76.6252 49.9116 81.7066C49.1112 90.3907 46.773 99.8444 43.087 109.335ZM100.984 79.6859C103.912 76.7578 103.914 72.0123 100.988 69.0864C98.062 66.1605 93.3164 66.1623 90.3884 69.0903C87.4603 72.0184 87.4586 76.7639 90.3844 79.6898C93.3103 82.6157 98.0559 82.6139 100.984 79.6859Z" fill="#FCFCFC"/>
</svg>
